<svg width="25" height="25" viewBox="0 0 25 25" fill="none" xmlns="http://www.w3.org/2000/svg">
<g clip-path="url(#clip0_8_1095)">
<path d="M20.9306 2.08312C20.9306 1.89894 20.8574 1.7223 20.7272 1.59207C20.597 1.46184 20.4203 1.38867 20.2361 1.38867H4.95836C4.77418 1.38867 4.59755 1.46184 4.46731 1.59207C4.33708 1.7223 4.26392 1.89894 4.26392 2.08312V2.77756H20.9306V2.08312Z" fill="black"/>
<path d="M22.3055 4.86095C22.3055 4.67677 22.2324 4.50014 22.1021 4.3699C21.9719 4.23967 21.7953 4.1665 21.6111 4.1665H3.55553C3.37135 4.1665 3.19472 4.23967 3.06448 4.3699C2.93425 4.50014 2.86108 4.67677 2.86108 4.86095V5.55539H22.3055V4.86095Z" fill="black"/>
<path d="M22.3056 6.94434H2.69447C2.34822 6.94434 2.01614 7.08189 1.7713 7.32672C1.52647 7.57156 1.38892 7.90364 1.38892 8.24989V20.9166C1.38892 21.2628 1.52647 21.5949 1.7713 21.8397C2.01614 22.0846 2.34822 22.2221 2.69447 22.2221H22.3056C22.6518 22.2221 22.9839 22.0846 23.2287 21.8397C23.4736 21.5949 23.6111 21.2628 23.6111 20.9166V8.24989C23.6111 7.90364 23.4736 7.57156 23.2287 7.32672C22.9839 7.08189 22.6518 6.94434 22.3056 6.94434ZM5.94447 9.34017C6.35652 9.34017 6.75931 9.46235 7.10191 9.69127C7.44451 9.92019 7.71154 10.2456 7.86922 10.6262C8.0269 11.0069 8.06816 11.4258 7.98777 11.8299C7.90739 12.2341 7.70897 12.6053 7.41761 12.8966C7.12625 13.188 6.75504 13.3864 6.35091 13.4668C5.94678 13.5472 5.52789 13.5059 5.14721 13.3483C4.76653 13.1906 4.44116 12.9235 4.21224 12.5809C3.98332 12.2383 3.86114 11.8355 3.86114 11.4235C3.86114 10.871 4.08063 10.3411 4.47133 9.95036C4.86203 9.55966 5.39194 9.34017 5.94447 9.34017ZM20.8334 19.4443H4.16669L9.34725 14.2568C9.4396 14.1652 9.5644 14.1138 9.69447 14.1138C9.82454 14.1138 9.94935 14.1652 10.0417 14.2568L12.5972 16.8124L16.1181 13.1943C16.2104 13.1027 16.3352 13.0513 16.4653 13.0513C16.5954 13.0513 16.7202 13.1027 16.8125 13.1943L20.8334 17.2152V19.4443Z" fill="black"/>
</g>
<defs>
<clipPath id="clip0_8_1095">
<rect width="25" height="25" fill="white"/>
</clipPath>
</defs>
</svg>
