<svg width="25" height="25" viewBox="0 0 25 25" fill="none" xmlns="http://www.w3.org/2000/svg">
<rect width="25" height="25" fill="white"/>
<path d="M18.8125 23.9582H20.5416C21.4166 23.9582 22.1354 23.2811 22.2395 22.4269L23.9583 5.26025H18.75V1.0415H16.6979V5.26025H11.5208L11.8333 7.69775C13.6145 8.18734 15.2812 9.07275 16.2812 10.0519C17.7812 11.5311 18.8125 13.0623 18.8125 15.5623V23.9582ZM1.04163 22.9165V21.8748H16.6979V22.9165C16.6979 23.479 16.2291 23.9582 15.625 23.9582H2.08329C1.51038 23.9582 1.04163 23.479 1.04163 22.9165ZM16.6979 15.6248C16.6979 7.2915 1.04163 7.2915 1.04163 15.6248H16.6979ZM1.04163 17.7082H16.6666V19.7915H1.04163V17.7082Z" fill="black"/>
</svg>
