<svg width="25" height="25" viewBox="0 0 25 25" fill="none" xmlns="http://www.w3.org/2000/svg">
<path d="M4.6875 21.875C4.25347 21.875 3.88438 21.7229 3.58021 21.4188C3.27604 21.1146 3.12431 20.7458 3.125 20.3125V18.3333L7.29167 14.6354V21.875H4.6875ZM8.33334 21.875V17.7083H16.6667V21.875H8.33334ZM17.7083 21.875V13.3333L13.2552 9.375L16.4063 6.58854L21.3542 10.9896C21.5278 11.1458 21.658 11.324 21.7448 11.524C21.8316 11.724 21.875 11.9365 21.875 12.1615V20.3125C21.875 20.7465 21.7229 21.1156 21.4188 21.4198C21.1146 21.724 20.7458 21.8757 20.3125 21.875H17.7083ZM3.125 16.9271V12.1615C3.125 11.9358 3.16841 11.7187 3.25521 11.5104C3.34202 11.3021 3.47222 11.1285 3.64584 10.9896L11.4583 4.0625C11.5972 3.92361 11.758 3.82396 11.9406 3.76354C12.1233 3.70312 12.3097 3.67257 12.5 3.67188C12.691 3.67188 12.8774 3.70243 13.0594 3.76354C13.2413 3.82465 13.4021 3.92431 13.5417 4.0625L15.625 5.91146L3.125 16.9271Z" fill="black"/>
</svg>
