<svg width="26" height="26" viewBox="0 0 26 26" fill="none" xmlns="http://www.w3.org/2000/svg">
<g clip-path="url(#clip0_7_67)">
<path d="M4.66671 21.6088C4.09379 21.6088 3.60317 21.4046 3.19483 20.9963C2.7865 20.588 2.58268 20.0977 2.58338 19.5255V7.02547C2.58338 6.45256 2.78754 5.96193 3.19588 5.5536C3.60421 5.14527 4.09449 4.94145 4.66671 4.94214H21.3334C21.9063 4.94214 22.3969 5.14631 22.8053 5.55464C23.2136 5.96297 23.4174 6.45325 23.4167 7.02547V13.2755H4.66671V19.5255H15.0834V21.6088H4.66671ZM4.66671 9.10881H21.3334V7.02547H4.66671V9.10881ZM20.2917 23.6921V20.5671H17.1667V18.4838H20.2917V15.3588H22.375V18.4838H25.5V20.5671H22.375V23.6921H20.2917Z" fill="#3F3F3F"/>
</g>
<defs>
<clipPath id="clip0_7_67">
<rect width="25" height="25" fill="white" transform="translate(0.5 0.775391)"/>
</clipPath>
</defs>
</svg>
