<svg width="25" height="25" viewBox="0 0 25 25" fill="none" xmlns="http://www.w3.org/2000/svg">
<path d="M7.29163 22.9168C6.71871 22.9168 6.22808 22.7127 5.81975 22.3043C5.41142 21.896 5.2076 21.4057 5.20829 20.8335C5.20829 20.2606 5.41246 19.77 5.82079 19.3616C6.22913 18.9533 6.7194 18.7495 7.29163 18.7502C7.86454 18.7502 8.35517 18.9543 8.7635 19.3627C9.17184 19.771 9.37565 20.2613 9.37496 20.8335C9.37496 21.4064 9.17079 21.897 8.76246 22.3054C8.35413 22.7137 7.86385 22.9175 7.29163 22.9168ZM17.7083 22.9168C17.1354 22.9168 16.6448 22.7127 16.2364 22.3043C15.8281 21.896 15.6243 21.4057 15.625 20.8335C15.625 20.2606 15.8291 19.77 16.2375 19.3616C16.6458 18.9533 17.1361 18.7495 17.7083 18.7502C18.2812 18.7502 18.7718 18.9543 19.1802 19.3627C19.5885 19.771 19.7923 20.2613 19.7916 20.8335C19.7916 21.4064 19.5875 21.897 19.1791 22.3054C18.7708 22.7137 18.2805 22.9175 17.7083 22.9168ZM7.29163 17.7085C6.51038 17.7085 5.9201 17.3654 5.52079 16.6793C5.12149 15.9932 5.10413 15.312 5.46871 14.6356L6.87496 12.0835L3.12496 4.16683H2.05725C1.76211 4.16683 1.51906 4.06683 1.32808 3.86683C1.13711 3.66683 1.04163 3.41961 1.04163 3.12517C1.04163 2.83003 1.14163 2.58246 1.34163 2.38246C1.54163 2.18246 1.78885 2.08281 2.08329 2.0835H3.776C3.96697 2.0835 4.14927 2.13558 4.32288 2.23975C4.49649 2.34392 4.6267 2.49149 4.7135 2.68246L5.41663 4.16683H20.7812C21.25 4.16683 21.5711 4.34044 21.7448 4.68767C21.9184 5.03489 21.9097 5.39947 21.7187 5.78142L18.0208 12.4481C17.8298 12.7953 17.5781 13.0644 17.2656 13.2554C16.9531 13.4463 16.5972 13.5418 16.1979 13.5418H8.43746L7.29163 15.6252H18.776C19.0711 15.6252 19.3142 15.7252 19.5052 15.9252C19.6961 16.1252 19.7916 16.3724 19.7916 16.6668C19.7916 16.962 19.6916 17.2095 19.4916 17.4095C19.2916 17.6095 19.0444 17.7092 18.75 17.7085H7.29163Z" fill="black"/>
</svg>
