<svg width="165" height="35" viewBox="0 0 165 35" fill="none" xmlns="http://www.w3.org/2000/svg">
<path fill-rule="evenodd" clip-rule="evenodd" d="M39.4393 13.1222C39.1799 14.0916 38.6771 14.8031 37.9308 15.2574C37.1836 15.7116 36.1357 15.9391 34.784 15.9391H30.4897L31.9972 10.3056H36.2915C37.6422 10.3056 38.5695 10.5328 39.0733 10.987C39.5761 11.4417 39.6988 12.1533 39.4393 13.1222ZM43.8865 13.0008C44.4326 10.9623 44.2062 9.39725 43.2077 8.30698C42.209 7.21671 40.4591 6.67188 37.9599 6.67188H28.3737L22.6041 28.234H27.2614L29.5876 19.5423H32.6419C33.3267 19.5423 33.8658 19.6535 34.2601 19.8756C34.6553 20.0982 34.8866 20.492 34.958 21.0565L35.7887 28.234H40.7789L39.9693 21.5415C39.8044 20.0474 39.1216 19.1691 37.9218 18.9068C39.4514 18.4631 40.7326 17.7253 41.7645 16.6956C42.7954 15.6663 43.5033 14.435 43.8865 13.0008Z" fill="#072654"/>
<path fill-rule="evenodd" clip-rule="evenodd" d="M55.2056 20.5116C54.8165 21.9649 54.217 23.0758 53.4074 23.8427C52.5969 24.6102 51.6274 24.9935 50.499 24.9935C49.3485 24.9935 48.5681 24.6152 48.1567 23.8578C47.7433 23.101 47.7293 22.0062 48.1135 20.572C48.4967 19.1388 49.1081 18.0184 49.9499 17.2101C50.7906 16.4034 51.7752 15.9991 52.9045 15.9991C54.0329 15.9991 54.7973 16.3884 55.1935 17.1654C55.5898 17.9424 55.5948 19.0578 55.2056 20.5116ZM57.2471 12.8799L56.6639 15.0604C56.4114 14.2728 55.9236 13.6473 55.2015 13.1831C54.4785 12.7188 53.5824 12.4861 52.5143 12.4861C51.2039 12.4861 49.9438 12.8245 48.735 13.5008C47.5262 14.1776 46.4691 15.1314 45.5651 16.3626C44.661 17.5944 43.9982 18.9974 43.5768 20.572C43.1554 22.1472 43.0709 23.5351 43.3244 24.7361C43.5778 25.9377 44.1269 26.8612 44.9726 27.5073C45.8175 28.1538 46.9057 28.4761 48.2362 28.4761C49.3042 28.4761 50.322 28.2541 51.2875 27.8099C52.2529 27.3663 53.0725 26.75 53.7473 25.9628L53.139 28.234H57.6443L61.7527 12.8799H57.2471Z" fill="#072654"/>
<path fill-rule="evenodd" clip-rule="evenodd" d="M77.9533 12.8799H64.8592L63.944 16.3022H71.5641L61.4891 25.0236L60.6293 28.234H74.1468L75.0629 24.8121H66.8988L77.1267 15.9688L77.9533 12.8799Z" fill="#072654"/>
<path fill-rule="evenodd" clip-rule="evenodd" d="M89.4816 20.4814C89.0763 21.9951 88.4759 23.1266 87.6814 23.8735C86.887 24.6203 85.9255 24.9934 84.7972 24.9934C82.4377 24.9934 81.6613 23.4902 82.4659 20.4814C82.8662 18.9872 83.4696 17.8618 84.2762 17.1049C85.0837 16.3475 86.0613 15.9688 87.2108 15.9688C88.3391 15.9688 89.1005 16.3475 89.4927 17.1049C89.8848 17.8618 89.8819 18.9872 89.4816 20.4814ZM92.1176 13.455C91.0807 12.8093 89.7562 12.4861 88.1431 12.4861C86.5098 12.4861 84.9973 12.8093 83.6044 13.455C82.2115 14.1015 81.0258 15.0302 80.0473 16.2412C79.0676 17.4528 78.3617 18.8659 77.9292 20.4814C77.4968 22.0968 77.4465 23.5094 77.7784 24.721C78.1093 25.9326 78.7972 26.8612 79.8451 27.5073C80.892 28.1538 82.2316 28.4761 83.8649 28.4761C85.4779 28.4761 86.9754 28.1538 88.3583 27.5073C89.7391 26.8612 90.9208 25.9326 91.9003 24.721C92.8788 23.5094 93.5848 22.0968 94.0173 20.4814C94.4498 18.8659 94.5001 17.4528 94.1691 16.2412C93.8372 15.0302 93.1533 14.1015 92.1176 13.455Z" fill="#072654"/>
<path fill-rule="evenodd" clip-rule="evenodd" d="M139.242 20.5116C138.853 21.9649 138.253 23.0758 137.444 23.8427C136.634 24.6102 135.663 24.9935 134.534 24.9935C133.386 24.9935 132.605 24.6152 132.193 23.8578C131.78 23.101 131.766 22.0062 132.15 20.572C132.533 19.1388 133.145 18.0184 133.986 17.2101C134.827 16.4034 135.812 15.9991 136.941 15.9991C138.069 15.9991 138.834 16.3884 139.23 17.1654C139.626 17.9424 139.631 19.0578 139.242 20.5116ZM141.284 12.8799L140.7 15.0604C140.448 14.2728 139.96 13.6473 139.238 13.1831C138.515 12.7188 137.619 12.4861 136.551 12.4861C135.24 12.4861 133.98 12.8245 132.771 13.5008C131.563 14.1776 130.506 15.1314 129.602 16.3626C128.697 17.5944 128.035 18.9974 127.613 20.572C127.192 22.1472 127.108 23.5351 127.361 24.7361C127.614 25.9377 128.162 26.8612 129.009 27.5073C129.854 28.1538 130.942 28.4761 132.273 28.4761C133.341 28.4761 134.358 28.2541 135.324 27.8099C136.289 27.3663 137.109 26.75 137.784 25.9628L137.175 28.234H141.681L145.789 12.8799H141.284Z" fill="#072654"/>
<path fill-rule="evenodd" clip-rule="evenodd" d="M108.181 16.9987L109.33 12.8194C108.94 12.6175 108.423 12.5164 107.778 12.5164C106.749 12.5164 105.759 12.7737 104.804 13.2888C103.985 13.7307 103.287 14.3511 102.697 15.1283L103.295 12.8778L101.99 12.8799H98.7907L94.6509 28.2339H99.2186L101.366 20.209C101.679 19.0382 102.24 18.1246 103.051 17.4685C103.861 16.8124 104.872 16.484 106.082 16.484C106.828 16.484 107.527 16.6557 108.181 16.9987Z" fill="#072654"/>
<path fill-rule="evenodd" clip-rule="evenodd" d="M120.896 20.5717C120.512 22.0059 119.916 23.1007 119.11 23.8576C118.301 24.6149 117.334 24.9931 116.205 24.9931C115.076 24.9931 114.307 24.6099 113.897 23.8425C113.487 23.0755 113.477 21.9651 113.866 20.5112C114.255 19.0575 114.861 17.942 115.683 17.165C116.506 16.388 117.482 15.9987 118.612 15.9987C119.72 15.9987 120.473 16.4031 120.873 17.2104C121.271 18.0181 121.279 19.139 120.896 20.5717ZM124.088 13.5005C123.24 12.8242 122.161 12.4863 120.851 12.4863C119.702 12.4863 118.608 12.7487 117.572 13.2734C116.533 13.7991 115.691 14.5147 115.046 15.4236L115.06 15.3229L115.828 12.8774H114.945V12.8796H111.369L110.233 17.1255C110.22 17.1748 110.209 17.2209 110.196 17.2708L105.513 34.7751H110.08L112.438 25.963C112.669 26.7496 113.15 27.366 113.878 27.8096C114.606 28.2538 115.504 28.4759 116.573 28.4759C117.904 28.4759 119.169 28.1536 120.371 27.507C121.572 26.8614 122.615 25.9373 123.501 24.7358C124.386 23.5353 125.04 22.1469 125.462 20.5717C125.883 18.997 125.97 17.5941 125.726 16.3624C125.482 15.1311 124.935 14.1773 124.088 13.5005Z" fill="#072654"/>
<path fill-rule="evenodd" clip-rule="evenodd" d="M164.7 12.8841L164.703 12.8799H161.937C161.848 12.8799 161.77 12.8824 161.69 12.8841H160.254L159.52 13.9085C159.461 13.9856 159.402 14.0633 159.339 14.1534L159.259 14.272L153.424 22.4096L152.214 12.8799H147.435L149.856 27.3607L144.511 34.7754H144.663H147.392H149.272L150.568 32.9379C150.606 32.8832 150.638 32.8383 150.679 32.7805L152.191 30.6344L152.234 30.573L158.997 20.9716L164.696 12.8905L164.703 12.8841H164.7Z" fill="#072654"/>
<path fill-rule="evenodd" clip-rule="evenodd" d="M10.8675 9.14204L9.50037 14.1805L17.3231 9.11371L12.2073 28.2292L17.4024 28.234L24.9598 0L10.8675 9.14204Z" fill="#3395FF"/>
<path fill-rule="evenodd" clip-rule="evenodd" d="M2.44761 20.198L0.296875 28.2339H10.9457C10.9457 28.2339 15.3013 11.8904 15.3025 11.8857C15.2984 11.8883 2.44761 20.198 2.44761 20.198Z" fill="#072654"/>
</svg>
