<svg width="21" height="21" viewBox="0 0 21 21" fill="none" xmlns="http://www.w3.org/2000/svg">
<path d="M10.5 9.45834C11.8813 9.45834 13.2061 10.0071 14.1828 10.9838C15.1596 11.9606 15.7083 13.2853 15.7083 14.6667V20.9167H5.29167V14.6667C5.29167 13.2853 5.8404 11.9606 6.81715 10.9838C7.7939 10.0071 9.11866 9.45834 10.5 9.45834ZM3.50833 12.5896C3.34256 13.1487 3.24463 13.7258 3.21667 14.3083L3.20833 14.6667V20.9167H0.0833322V16.2292C0.0831271 15.3308 0.414612 14.464 1.0142 13.795C1.61379 13.126 2.43927 12.702 3.33229 12.6042L3.50833 12.5896ZM17.4917 12.5896C18.4187 12.6461 19.2892 13.0541 19.9256 13.7305C20.5621 14.4068 20.9165 15.3005 20.9167 16.2292V20.9167H17.7917V14.6667C17.7917 13.9448 17.6875 13.2479 17.4917 12.5896ZM3.72917 6.33334C4.41983 6.33334 5.08221 6.60771 5.57059 7.09609C6.05897 7.58446 6.33333 8.24684 6.33333 8.93751C6.33333 9.62818 6.05897 10.2906 5.57059 10.7789C5.08221 11.2673 4.41983 11.5417 3.72917 11.5417C3.0385 11.5417 2.37612 11.2673 1.88774 10.7789C1.39937 10.2906 1.125 9.62818 1.125 8.93751C1.125 8.24684 1.39937 7.58446 1.88774 7.09609C2.37612 6.60771 3.0385 6.33334 3.72917 6.33334ZM17.2708 6.33334C17.9615 6.33334 18.6239 6.60771 19.1123 7.09609C19.6006 7.58446 19.875 8.24684 19.875 8.93751C19.875 9.62818 19.6006 10.2906 19.1123 10.7789C18.6239 11.2673 17.9615 11.5417 17.2708 11.5417C16.5802 11.5417 15.9178 11.2673 15.4294 10.7789C14.941 10.2906 14.6667 9.62818 14.6667 8.93751C14.6667 8.24684 14.941 7.58446 15.4294 7.09609C15.9178 6.60771 16.5802 6.33334 17.2708 6.33334ZM10.5 0.0833435C11.6051 0.0833435 12.6649 0.52233 13.4463 1.30373C14.2277 2.08513 14.6667 3.14494 14.6667 4.25001C14.6667 5.35508 14.2277 6.41489 13.4463 7.19629C12.6649 7.97769 11.6051 8.41668 10.5 8.41668C9.39493 8.41668 8.33512 7.97769 7.55372 7.19629C6.77232 6.41489 6.33333 5.35508 6.33333 4.25001C6.33333 3.14494 6.77232 2.08513 7.55372 1.30373C8.33512 0.52233 9.39493 0.0833435 10.5 0.0833435Z" fill="black"/>
</svg>
