<svg width="23" height="23" viewBox="0 0 23 23" fill="none" xmlns="http://www.w3.org/2000/svg">
<path d="M17.7708 22.9167H19.5C20.375 22.9167 21.0937 22.2396 21.1979 21.3854L22.9167 4.21875H17.7083V0H15.6562V4.21875H10.4792L10.7917 6.65625C12.5729 7.14583 14.2396 8.03125 15.2396 9.01042C16.7396 10.4896 17.7708 12.0208 17.7708 14.5208V22.9167ZM0 21.875V20.8333H15.6562V21.875C15.6562 22.4375 15.1875 22.9167 14.5833 22.9167H1.04167C0.46875 22.9167 0 22.4375 0 21.875ZM15.6562 14.5833C15.6562 6.25 0 6.25 0 14.5833H15.6562ZM0 16.6667H15.625V18.75H0V16.6667Z" fill="black"/>
</svg>
