<svg width="21" height="21" viewBox="0 0 21 21" fill="none" xmlns="http://www.w3.org/2000/svg">
<path fill-rule="evenodd" clip-rule="evenodd" d="M10.4999 19.8752C15.6775 19.8752 19.8749 15.6778 19.8749 10.5002C19.8749 5.32256 15.6775 1.12516 10.4999 1.12516C5.32231 1.12516 1.12492 5.32256 1.12492 10.5002C1.12492 15.6778 5.32231 19.8752 10.4999 19.8752ZM10.4999 20.9168C16.253 20.9168 20.9166 16.2533 20.9166 10.5002C20.9166 4.74704 16.253 0.0834961 10.4999 0.0834961C4.74679 0.0834961 0.083252 4.74704 0.083252 10.5002C0.083252 16.2533 4.74679 20.9168 10.4999 20.9168Z" fill="black"/>
<path d="M4.25 16.5577C4.25 16.0196 4.65208 15.565 5.1875 15.5056C9.20573 15.0608 11.8125 15.1009 15.8219 15.5155C16.0221 15.5365 16.2118 15.6154 16.368 15.7425C16.5241 15.8696 16.6398 16.0394 16.701 16.2312C16.7622 16.4229 16.7663 16.6284 16.7126 16.8224C16.659 17.0165 16.55 17.1907 16.399 17.3238C11.6672 21.4483 8.96302 21.3915 4.58333 17.328C4.36979 17.1301 4.25 16.8483 4.25 16.5577Z" fill="black"/>
<path fill-rule="evenodd" clip-rule="evenodd" d="M15.7681 16.0328C11.7905 15.6213 9.2212 15.5828 5.24411 16.0229C5.1132 16.0381 4.99251 16.1012 4.90515 16.1998C4.8178 16.2985 4.76992 16.426 4.77067 16.5578C4.77067 16.7067 4.83265 16.8479 4.93734 16.9458C7.10817 18.9594 8.75297 19.8692 10.3608 19.875C11.9743 19.8807 13.7077 18.9781 16.0566 16.9312C16.1312 16.8648 16.185 16.7781 16.2112 16.6818C16.2375 16.5854 16.2353 16.4834 16.2047 16.3883C16.1741 16.2932 16.1166 16.209 16.0391 16.146C15.9616 16.083 15.8674 16.0433 15.7681 16.0328ZM5.13005 14.9875C9.19047 14.538 11.8353 14.5786 15.8759 14.9969C16.1771 15.0283 16.4626 15.1469 16.6974 15.3381C16.9323 15.5293 17.1063 15.7848 17.1981 16.0734C17.29 16.3619 17.2957 16.671 17.2146 16.9628C17.1335 17.2546 16.9691 17.5164 16.7415 17.7161C14.3587 19.7932 12.3743 20.9245 10.3577 20.9166C8.33526 20.9094 6.43838 19.7588 4.22953 17.7094C4.07138 17.562 3.94531 17.3837 3.85919 17.1855C3.77307 16.9873 3.72875 16.7734 3.72901 16.5573C3.72825 16.169 3.87078 15.794 4.1293 15.5042C4.38782 15.2145 4.74416 15.0308 5.13005 14.9875Z" fill="black"/>
<path d="M14.6666 8.41667C14.6666 9.52174 14.2276 10.5815 13.4462 11.3629C12.6648 12.1443 11.605 12.5833 10.4999 12.5833C9.39485 12.5833 8.33504 12.1443 7.55364 11.3629C6.77224 10.5815 6.33325 9.52174 6.33325 8.41667C6.33325 7.3116 6.77224 6.25179 7.55364 5.47039C8.33504 4.68899 9.39485 4.25 10.4999 4.25C11.605 4.25 12.6648 4.68899 13.4462 5.47039C14.2276 6.25179 14.6666 7.3116 14.6666 8.41667Z" fill="black"/>
<path fill-rule="evenodd" clip-rule="evenodd" d="M10.4999 11.5417C11.3287 11.5417 12.1236 11.2124 12.7096 10.6264C13.2957 10.0403 13.6249 9.24547 13.6249 8.41667C13.6249 7.58787 13.2957 6.79301 12.7096 6.20696C12.1236 5.62091 11.3287 5.29167 10.4999 5.29167C9.67112 5.29167 8.87626 5.62091 8.29021 6.20696C7.70416 6.79301 7.37492 7.58787 7.37492 8.41667C7.37492 9.24547 7.70416 10.0403 8.29021 10.6264C8.87626 11.2124 9.67112 11.5417 10.4999 11.5417ZM10.4999 12.5833C11.605 12.5833 12.6648 12.1443 13.4462 11.3629C14.2276 10.5815 14.6666 9.52174 14.6666 8.41667C14.6666 7.3116 14.2276 6.25179 13.4462 5.47039C12.6648 4.68899 11.605 4.25 10.4999 4.25C9.39485 4.25 8.33504 4.68899 7.55364 5.47039C6.77224 6.25179 6.33325 7.3116 6.33325 8.41667C6.33325 9.52174 6.77224 10.5815 7.55364 11.3629C8.33504 12.1443 9.39485 12.5833 10.4999 12.5833Z" fill="black"/>
</svg>
