<svg width="23" height="17" viewBox="0 0 23 17" fill="none" xmlns="http://www.w3.org/2000/svg">
<path d="M21.3056 0.944336H1.69447C1.34822 0.944336 1.01614 1.08189 0.771304 1.32672C0.526465 1.57156 0.388916 1.90364 0.388916 2.24989V14.9166C0.388916 15.2628 0.526465 15.5949 0.771304 15.8397C1.01614 16.0846 1.34822 16.2221 1.69447 16.2221H21.3056C21.6518 16.2221 21.9839 16.0846 22.2287 15.8397C22.4736 15.5949 22.6111 15.2628 22.6111 14.9166V2.24989C22.6111 1.90364 22.4736 1.57156 22.2287 1.32672C21.9839 1.08189 21.6518 0.944336 21.3056 0.944336ZM4.94447 3.34017C5.35652 3.34017 5.75931 3.46235 6.10191 3.69127C6.44451 3.92019 6.71154 4.24557 6.86922 4.62625C7.0269 5.00692 7.06816 5.42581 6.98777 5.82994C6.90739 6.23407 6.70897 6.60528 6.41761 6.89664C6.12625 7.188 5.75504 7.38642 5.35091 7.4668C4.94678 7.54719 4.52789 7.50593 4.14721 7.34825C3.76653 7.19057 3.44116 6.92354 3.21224 6.58094C2.98332 6.23834 2.86114 5.83555 2.86114 5.4235C2.86114 4.87097 3.08063 4.34106 3.47133 3.95036C3.86203 3.55966 4.39194 3.34017 4.94447 3.34017ZM19.8334 13.4443H3.16669L8.34725 8.25684C8.4396 8.16524 8.5644 8.11384 8.69447 8.11384C8.82454 8.11384 8.94935 8.16524 9.04169 8.25684L11.5972 10.8124L15.1181 7.19434C15.2104 7.10274 15.3352 7.05134 15.4653 7.05134C15.5954 7.05134 15.7202 7.10274 15.8125 7.19434L19.8334 11.2152V13.4443Z" fill="black"/>
</svg>
