<svg width="23" height="23" viewBox="0 0 23 23" fill="none" xmlns="http://www.w3.org/2000/svg">
<path d="M17.8125 22.9582H19.5416C20.4166 22.9582 21.1354 22.2811 21.2395 21.4269L22.9583 4.26025H17.75V0.0415039H15.6979V4.26025H10.5208L10.8333 6.69775C12.6145 7.18734 14.2812 8.07275 15.2812 9.05192C16.7812 10.5311 17.8125 12.0623 17.8125 14.5623V22.9582ZM0.041626 21.9165V20.8748H15.6979V21.9165C15.6979 22.479 15.2291 22.9582 14.625 22.9582H1.08329C0.510376 22.9582 0.041626 22.479 0.041626 21.9165ZM15.6979 14.6248C15.6979 6.2915 0.041626 6.2915 0.041626 14.6248H15.6979ZM0.041626 16.7082H15.6666V18.7915H0.041626V16.7082Z" fill="black"/>
</svg>
