<svg width="21" height="21" viewBox="0 0 21 21" fill="none" xmlns="http://www.w3.org/2000/svg">
<path d="M10.5 9.4585C11.8814 9.4585 13.2061 10.0072 14.1829 10.984C15.1596 11.9607 15.7084 13.2855 15.7084 14.6668V20.9168H5.29171V14.6668C5.29171 13.2855 5.84044 11.9607 6.81719 10.984C7.79395 10.0072 9.11871 9.4585 10.5 9.4585ZM3.50837 12.5897C3.3426 13.1489 3.24468 13.726 3.21671 14.3085L3.20837 14.6668V20.9168H0.0833741V16.2293C0.083169 15.331 0.414654 14.4642 1.01424 13.7952C1.61383 13.1262 2.43931 12.7021 3.33233 12.6043L3.50837 12.5897ZM17.4917 12.5897C18.4187 12.6462 19.2892 13.0543 19.9257 13.7306C20.5621 14.4069 20.9166 15.3006 20.9167 16.2293V20.9168H17.7917V14.6668C17.7917 13.945 17.6875 13.2481 17.4917 12.5897ZM3.72921 6.3335C4.41988 6.3335 5.08226 6.60786 5.57063 7.09624C6.05901 7.58462 6.33337 8.247 6.33337 8.93766C6.33337 9.62833 6.05901 10.2907 5.57063 10.7791C5.08226 11.2675 4.41988 11.5418 3.72921 11.5418C3.03854 11.5418 2.37616 11.2675 1.88778 10.7791C1.39941 10.2907 1.12504 9.62833 1.12504 8.93766C1.12504 8.247 1.39941 7.58462 1.88778 7.09624C2.37616 6.60786 3.03854 6.3335 3.72921 6.3335ZM17.2709 6.3335C17.9615 6.3335 18.6239 6.60786 19.1123 7.09624C19.6007 7.58462 19.875 8.247 19.875 8.93766C19.875 9.62833 19.6007 10.2907 19.1123 10.7791C18.6239 11.2675 17.9615 11.5418 17.2709 11.5418C16.5802 11.5418 15.9178 11.2675 15.4295 10.7791C14.9411 10.2907 14.6667 9.62833 14.6667 8.93766C14.6667 8.247 14.9411 7.58462 15.4295 7.09624C15.9178 6.60786 16.5802 6.3335 17.2709 6.3335ZM10.5 0.0834961C11.6051 0.0834961 12.6649 0.522483 13.4463 1.30388C14.2277 2.08529 14.6667 3.14509 14.6667 4.25016C14.6667 5.35523 14.2277 6.41504 13.4463 7.19644C12.6649 7.97784 11.6051 8.41683 10.5 8.41683C9.39497 8.41683 8.33516 7.97784 7.55376 7.19644C6.77236 6.41504 6.33337 5.35523 6.33337 4.25016C6.33337 3.14509 6.77236 2.08529 7.55376 1.30388C8.33516 0.522483 9.39497 0.0834961 10.5 0.0834961Z" fill="black"/>
</svg>
