<svg width="19" height="19" viewBox="0 0 19 19" fill="none" xmlns="http://www.w3.org/2000/svg">
<path d="M1.6875 18.875C1.25347 18.875 0.884377 18.7229 0.580211 18.4188C0.276044 18.1146 0.124308 17.7458 0.125002 17.3125V15.3333L4.29167 11.6354V18.875H1.6875ZM5.33334 18.875V14.7083H13.6667V18.875H5.33334ZM14.7083 18.875V10.3333L10.2552 6.375L13.4063 3.58854L18.3542 7.98958C18.5278 8.14583 18.658 8.32396 18.7448 8.52396C18.8316 8.72396 18.875 8.93646 18.875 9.16146V17.3125C18.875 17.7465 18.7229 18.1156 18.4188 18.4198C18.1146 18.724 17.7458 18.8757 17.3125 18.875H14.7083ZM0.125002 13.9271V9.16146C0.125002 8.93576 0.168405 8.71875 0.255211 8.51042C0.342016 8.30208 0.472225 8.12847 0.645836 7.98958L8.45834 1.0625C8.59722 0.923611 8.75799 0.823958 8.94063 0.763541C9.12327 0.703125 9.30972 0.672569 9.5 0.671875C9.69097 0.671875 9.87743 0.70243 10.0594 0.763541C10.2413 0.824653 10.4021 0.924306 10.5417 1.0625L12.625 2.91146L0.125002 13.9271Z" fill="black"/>
</svg>
