<svg width="25" height="25" viewBox="0 0 25 25" fill="none" xmlns="http://www.w3.org/2000/svg">
<path fill-rule="evenodd" clip-rule="evenodd" d="M12.5 21.8752C17.6776 21.8752 21.875 17.6778 21.875 12.5002C21.875 7.32256 17.6776 3.12516 12.5 3.12516C7.32244 3.12516 3.12504 7.32256 3.12504 12.5002C3.12504 17.6778 7.32244 21.8752 12.5 21.8752ZM12.5 22.9168C18.2532 22.9168 22.9167 18.2533 22.9167 12.5002C22.9167 6.74704 18.2532 2.0835 12.5 2.0835C6.74692 2.0835 2.08337 6.74704 2.08337 12.5002C2.08337 18.2533 6.74692 22.9168 12.5 22.9168Z" fill="black"/>
<path d="M6.25 18.5577C6.25 18.0196 6.65208 17.565 7.1875 17.5056C11.2057 17.0608 13.8125 17.1009 17.8219 17.5155C18.0221 17.5365 18.2118 17.6154 18.368 17.7425C18.5241 17.8696 18.6398 18.0394 18.701 18.2312C18.7622 18.4229 18.7663 18.6284 18.7126 18.8224C18.659 19.0165 18.55 19.1907 18.399 19.3238C13.6672 23.4483 10.963 23.3915 6.58333 19.328C6.36979 19.1301 6.25 18.8483 6.25 18.5577Z" fill="black"/>
<path fill-rule="evenodd" clip-rule="evenodd" d="M17.7683 18.0328C13.7907 17.6213 11.2214 17.5828 7.24436 18.0229C7.11344 18.0381 6.99275 18.1012 6.9054 18.1998C6.81804 18.2985 6.77016 18.426 6.77092 18.5578C6.77092 18.7067 6.8329 18.8479 6.93758 18.9458C9.10842 20.9594 10.7532 21.8692 12.361 21.875C13.9746 21.8807 15.7079 20.9781 18.0569 18.9312C18.1315 18.8648 18.1852 18.7781 18.2115 18.6818C18.2378 18.5854 18.2355 18.4834 18.2049 18.3883C18.1744 18.2932 18.1168 18.209 18.0393 18.146C17.9618 18.083 17.8677 18.0433 17.7683 18.0328ZM7.13029 16.9875C11.1907 16.538 13.8355 16.5786 17.8761 16.9969C18.1773 17.0283 18.4628 17.1469 18.6977 17.3381C18.9325 17.5293 19.1065 17.7848 19.1984 18.0734C19.2902 18.3619 19.296 18.671 19.2149 18.9628C19.1338 19.2546 18.9694 19.5164 18.7418 19.7161C16.3589 21.7932 14.3746 22.9245 12.3579 22.9166C10.3355 22.9094 8.43863 21.7588 6.22977 19.7094C6.07162 19.562 5.94555 19.3837 5.85943 19.1855C5.77331 18.9873 5.72899 18.7734 5.72925 18.5573C5.72849 18.169 5.87102 17.794 6.12954 17.5042C6.38807 17.2145 6.7444 17.0308 7.13029 16.9875Z" fill="black"/>
<path d="M16.6667 10.4167C16.6667 11.5217 16.2277 12.5815 15.4463 13.3629C14.6649 14.1443 13.6051 14.5833 12.5 14.5833C11.395 14.5833 10.3352 14.1443 9.55376 13.3629C8.77236 12.5815 8.33337 11.5217 8.33337 10.4167C8.33337 9.3116 8.77236 8.25179 9.55376 7.47039C10.3352 6.68899 11.395 6.25 12.5 6.25C13.6051 6.25 14.6649 6.68899 15.4463 7.47039C16.2277 8.25179 16.6667 9.3116 16.6667 10.4167Z" fill="black"/>
<path fill-rule="evenodd" clip-rule="evenodd" d="M12.5 13.5417C13.3288 13.5417 14.1237 13.2124 14.7097 12.6264C15.2958 12.0403 15.625 11.2455 15.625 10.4167C15.625 9.58787 15.2958 8.79301 14.7097 8.20696C14.1237 7.62091 13.3288 7.29167 12.5 7.29167C11.6712 7.29167 10.8764 7.62091 10.2903 8.20696C9.70428 8.79301 9.37504 9.58787 9.37504 10.4167C9.37504 11.2455 9.70428 12.0403 10.2903 12.6264C10.8764 13.2124 11.6712 13.5417 12.5 13.5417ZM12.5 14.5833C13.6051 14.5833 14.6649 14.1443 15.4463 13.3629C16.2277 12.5815 16.6667 11.5217 16.6667 10.4167C16.6667 9.3116 16.2277 8.25179 15.4463 7.47039C14.6649 6.68899 13.6051 6.25 12.5 6.25C11.395 6.25 10.3352 6.68899 9.55376 7.47039C8.77236 8.25179 8.33337 9.3116 8.33337 10.4167C8.33337 11.5217 8.77236 12.5815 9.55376 13.3629C10.3352 14.1443 11.395 14.5833 12.5 14.5833Z" fill="black"/>
</svg>
