<svg width="25" height="26" viewBox="0 0 25 26" fill="none" xmlns="http://www.w3.org/2000/svg">
<path fill-rule="evenodd" clip-rule="evenodd" d="M7.62973 18.497C11.1948 17.9762 13.6495 18.021 17.2193 18.5153C17.4778 18.5527 17.7141 18.6825 17.8844 18.8806C18.0547 19.0786 18.1476 19.3317 18.1459 19.5929C18.1459 19.8429 18.0599 20.0856 17.9047 20.2752C17.6342 20.6057 17.3571 20.9308 17.0735 21.2502H18.449C18.5355 21.147 18.6224 21.0418 18.7105 20.9351C19.0194 20.5562 19.1879 20.0822 19.1875 19.5934C19.1875 18.5387 18.4177 17.6299 17.362 17.484C13.7079 16.9783 11.1537 16.9298 7.47921 17.4668C6.41254 17.6226 5.64587 18.5455 5.64587 19.6075C5.64587 20.0788 5.79952 20.545 6.09067 20.9226C6.1766 21.034 6.2615 21.1434 6.34587 21.2507H7.68806C7.42422 20.9348 7.16687 20.6136 6.91619 20.2871C6.76721 20.0917 6.68684 19.8527 6.68754 19.6069C6.68754 19.046 7.09067 18.5757 7.62973 18.497ZM12.4167 13.4377C12.8271 13.4377 13.2335 13.3568 13.6126 13.1998C13.9917 13.0427 14.3362 12.8126 14.6264 12.5224C14.9166 12.2322 15.1468 11.8877 15.3038 11.5085C15.4609 11.1294 15.5417 10.723 15.5417 10.3127C15.5417 9.90228 15.4609 9.49592 15.3038 9.11678C15.1468 8.73763 14.9166 8.39314 14.6264 8.10295C14.3362 7.81277 13.9917 7.58259 13.6126 7.42554C13.2335 7.26849 12.8271 7.18766 12.4167 7.18766C11.5879 7.18766 10.793 7.5169 10.207 8.10295C9.62095 8.68901 9.29171 9.48386 9.29171 10.3127C9.29171 11.1415 9.62095 11.9363 10.207 12.5224C10.793 13.1084 11.5879 13.4377 12.4167 13.4377ZM12.4167 14.4793C13.5218 14.4793 14.5816 14.0403 15.363 13.2589C16.1444 12.4775 16.5834 11.4177 16.5834 10.3127C16.5834 9.20759 16.1444 8.14779 15.363 7.36638C14.5816 6.58498 13.5218 6.146 12.4167 6.146C11.3116 6.146 10.2518 6.58498 9.47043 7.36638C8.68903 8.14779 8.25004 9.20759 8.25004 10.3127C8.25004 11.4177 8.68903 12.4775 9.47043 13.2589C10.2518 14.0403 11.3116 14.4793 12.4167 14.4793Z" fill="white"/>
<path fill-rule="evenodd" clip-rule="evenodd" d="M12.4167 22.2917C17.5943 22.2917 21.7917 18.0943 21.7917 12.9167C21.7917 7.73906 17.5943 3.54167 12.4167 3.54167C7.23906 3.54167 3.04167 7.73906 3.04167 12.9167C3.04167 18.0943 7.23906 22.2917 12.4167 22.2917ZM12.4167 23.3333C18.1698 23.3333 22.8333 18.6698 22.8333 12.9167C22.8333 7.16354 18.1698 2.5 12.4167 2.5C6.66354 2.5 2 7.16354 2 12.9167C2 18.6698 6.66354 23.3333 12.4167 23.3333Z" fill="white"/>
</svg>
