<svg width="21" height="21" viewBox="0 0 21 21" fill="none" xmlns="http://www.w3.org/2000/svg">
<path fill-rule="evenodd" clip-rule="evenodd" d="M10.5 19.875C15.6776 19.875 19.875 15.6776 19.875 10.5C19.875 5.32241 15.6776 1.12501 10.5 1.12501C5.32239 1.12501 1.12499 5.32241 1.12499 10.5C1.12499 15.6776 5.32239 19.875 10.5 19.875ZM10.5 20.9167C16.2531 20.9167 20.9167 16.2531 20.9167 10.5C20.9167 4.74689 16.2531 0.0833435 10.5 0.0833435C4.74687 0.0833435 0.0833282 4.74689 0.0833282 10.5C0.0833282 16.2531 4.74687 20.9167 10.5 20.9167Z" fill="black"/>
<path d="M4.25 16.5573C4.25 16.0193 4.65208 15.5646 5.1875 15.5052C9.20573 15.0604 11.8125 15.1005 15.8219 15.5151C16.0221 15.5361 16.2118 15.615 16.368 15.7421C16.5241 15.8692 16.6398 16.039 16.701 16.2308C16.7622 16.4226 16.7663 16.628 16.7126 16.8221C16.659 17.0161 16.55 17.1903 16.399 17.3234C11.6672 21.4479 8.96302 21.3911 4.58333 17.3276C4.36979 17.1297 4.25 16.8479 4.25 16.5573Z" fill="black"/>
<path fill-rule="evenodd" clip-rule="evenodd" d="M15.7682 16.0328C11.7906 15.6214 9.22135 15.5828 5.24426 16.0229C5.11335 16.0382 4.99266 16.1012 4.90531 16.1999C4.81795 16.2986 4.77007 16.426 4.77083 16.5578C4.77083 16.7068 4.83281 16.8479 4.93749 16.9458C7.10833 18.9594 8.75312 19.8693 10.3609 19.875C11.9745 19.8807 13.7078 18.9781 16.0568 16.9313C16.1314 16.8648 16.1851 16.7782 16.2114 16.6818C16.2377 16.5854 16.2354 16.4835 16.2048 16.3884C16.1743 16.2932 16.1167 16.2091 16.0392 16.146C15.9617 16.083 15.8676 16.0433 15.7682 16.0328ZM5.1302 14.9875C9.19062 14.538 11.8354 14.5787 15.876 14.9969C16.1772 15.0283 16.4627 15.1469 16.6976 15.3381C16.9324 15.5293 17.1064 15.7848 17.1983 16.0734C17.2901 16.362 17.2959 16.671 17.2148 16.9628C17.1337 17.2546 16.9693 17.5164 16.7417 17.7162C14.3588 19.7932 12.3745 20.9245 10.3578 20.9167C8.33541 20.9094 6.43854 19.7589 4.22968 17.7094C4.07153 17.5621 3.94546 17.3837 3.85934 17.1855C3.77322 16.9873 3.7289 16.7734 3.72916 16.5573C3.7284 16.169 3.87093 15.794 4.12945 15.5043C4.38797 15.2145 4.74431 15.0309 5.1302 14.9875Z" fill="black"/>
<path d="M14.6667 8.41667C14.6667 9.52174 14.2277 10.5815 13.4463 11.3629C12.6649 12.1443 11.6051 12.5833 10.5 12.5833C9.39493 12.5833 8.33512 12.1443 7.55372 11.3629C6.77231 10.5815 6.33333 9.52174 6.33333 8.41667C6.33333 7.3116 6.77231 6.25179 7.55372 5.47039C8.33512 4.68899 9.39493 4.25 10.5 4.25C11.6051 4.25 12.6649 4.68899 13.4463 5.47039C14.2277 6.25179 14.6667 7.3116 14.6667 8.41667Z" fill="black"/>
<path fill-rule="evenodd" clip-rule="evenodd" d="M10.5 11.5417C11.3288 11.5417 12.1237 11.2124 12.7097 10.6264C13.2958 10.0403 13.625 9.24547 13.625 8.41667C13.625 7.58787 13.2958 6.79301 12.7097 6.20696C12.1237 5.62091 11.3288 5.29167 10.5 5.29167C9.67119 5.29167 8.87634 5.62091 8.29029 6.20696C7.70423 6.79301 7.37499 7.58787 7.37499 8.41667C7.37499 9.24547 7.70423 10.0403 8.29029 10.6264C8.87634 11.2124 9.67119 11.5417 10.5 11.5417ZM10.5 12.5833C11.6051 12.5833 12.6649 12.1443 13.4463 11.3629C14.2277 10.5815 14.6667 9.52174 14.6667 8.41667C14.6667 7.3116 14.2277 6.25179 13.4463 5.47039C12.6649 4.68899 11.6051 4.25 10.5 4.25C9.39493 4.25 8.33512 4.68899 7.55372 5.47039C6.77231 6.25179 6.33333 7.3116 6.33333 8.41667C6.33333 9.52174 6.77231 10.5815 7.55372 11.3629C8.33512 12.1443 9.39493 12.5833 10.5 12.5833Z" fill="black"/>
</svg>
