<svg width="24" height="24" viewBox="0 0 24 24" fill="none" xmlns="http://www.w3.org/2000/svg">
<path d="M16 10C16.55 10 17.021 9.804 17.413 9.412C17.805 9.02 18.0007 8.54933 18 8C18 7.45 17.804 6.979 17.412 6.587C17.02 6.195 16.5493 5.99933 16 6C15.45 6 14.979 6.196 14.587 6.588C14.195 6.98 13.9993 7.45067 14 8C14 8.55 14.196 9.021 14.588 9.413C14.98 9.805 15.4507 10.0007 16 10ZM16 19.625C15.8667 19.625 15.7333 19.6 15.6 19.55C15.4667 19.5 15.35 19.4333 15.25 19.35C12.8167 17.2 11 15.204 9.8 13.362C8.6 11.52 8 9.79933 8 8.2C8 5.7 8.80433 3.70833 10.413 2.225C12.0217 0.741667 13.884 0 16 0C18.1167 0 19.9793 0.741667 21.588 2.225C23.1967 3.70833 24.0007 5.7 24 8.2C24 9.8 23.4 11.521 22.2 13.363C21 15.205 19.1833 17.2007 16.75 19.35C16.65 19.4333 16.5333 19.5 16.4 19.55C16.2667 19.6 16.1333 19.625 16 19.625Z" fill="black"/>
</svg>
