<svg width="23" height="17" viewBox="0 0 23 17" fill="none" xmlns="http://www.w3.org/2000/svg">
<path d="M21.3056 0.944458H1.69444C1.34819 0.944458 1.01611 1.08201 0.771274 1.32685C0.526435 1.57169 0.388885 1.90376 0.388885 2.25001V14.9167C0.388885 15.2629 0.526435 15.595 0.771274 15.8398C1.01611 16.0847 1.34819 16.2222 1.69444 16.2222H21.3056C21.6518 16.2222 21.9839 16.0847 22.2287 15.8398C22.4736 15.595 22.6111 15.2629 22.6111 14.9167V2.25001C22.6111 1.90376 22.4736 1.57169 22.2287 1.32685C21.9839 1.08201 21.6518 0.944458 21.3056 0.944458ZM4.94444 3.34029C5.35649 3.34029 5.75928 3.46248 6.10188 3.6914C6.44448 3.92032 6.71151 4.24569 6.86919 4.62637C7.02687 5.00705 7.06813 5.42594 6.98774 5.83006C6.90736 6.23419 6.70894 6.6054 6.41758 6.89676C6.12622 7.18812 5.75501 7.38654 5.35088 7.46693C4.94675 7.54731 4.52786 7.50606 4.14718 7.34837C3.7665 7.19069 3.44113 6.92366 3.21221 6.58106C2.98329 6.23846 2.86111 5.83567 2.86111 5.42363C2.86111 4.87109 3.0806 4.34119 3.4713 3.95049C3.862 3.55978 4.39191 3.34029 4.94444 3.34029ZM19.8333 13.4445H3.16666L8.34722 8.25696C8.43957 8.16536 8.56437 8.11396 8.69444 8.11396C8.82451 8.11396 8.94932 8.16536 9.04166 8.25696L11.5972 10.8125L15.1181 7.19446C15.2104 7.10286 15.3352 7.05146 15.4653 7.05146C15.5953 7.05146 15.7201 7.10286 15.8125 7.19446L19.8333 11.2153V13.4445Z" fill="black"/>
</svg>
