<svg width="21" height="21" viewBox="0 0 21 21" fill="none" xmlns="http://www.w3.org/2000/svg">
<path d="M6.29166 20.9167C5.71875 20.9167 5.22812 20.7125 4.81979 20.3042C4.41146 19.8958 4.20764 19.4056 4.20833 18.8333C4.20833 18.2604 4.4125 17.7698 4.82083 17.3615C5.22916 16.9531 5.71944 16.7493 6.29166 16.75C6.86458 16.75 7.35521 16.9542 7.76354 17.3625C8.17187 17.7708 8.37569 18.2611 8.375 18.8333C8.375 19.4063 8.17083 19.8969 7.7625 20.3052C7.35416 20.7136 6.86389 20.9174 6.29166 20.9167ZM16.7083 20.9167C16.1354 20.9167 15.6448 20.7125 15.2365 20.3042C14.8281 19.8958 14.6243 19.4056 14.625 18.8333C14.625 18.2604 14.8292 17.7698 15.2375 17.3615C15.6458 16.9531 16.1361 16.7493 16.7083 16.75C17.2812 16.75 17.7719 16.9542 18.1802 17.3625C18.5885 17.7708 18.7924 18.2611 18.7917 18.8333C18.7917 19.4063 18.5875 19.8969 18.1792 20.3052C17.7708 20.7136 17.2806 20.9174 16.7083 20.9167ZM6.29166 15.7083C5.51041 15.7083 4.92014 15.3653 4.52083 14.6792C4.12153 13.9931 4.10416 13.3118 4.46875 12.6354L5.875 10.0833L2.125 2.16668H1.05729C0.76215 2.16668 0.519095 2.06668 0.328122 1.86668C0.13715 1.66668 0.0416641 1.41946 0.0416641 1.12501C0.0416641 0.829875 0.141664 0.582305 0.341664 0.382305C0.541664 0.182305 0.788886 0.0826527 1.08333 0.0833471H2.77604C2.96701 0.0833471 3.1493 0.135431 3.32291 0.239597C3.49653 0.343764 3.62673 0.491333 3.71354 0.682305L4.41666 2.16668H19.7812C20.25 2.16668 20.5712 2.34029 20.7448 2.68751C20.9184 3.03474 20.9097 3.39932 20.7187 3.78126L17.0208 10.4479C16.8299 10.7952 16.5781 11.0643 16.2656 11.2552C15.9531 11.4462 15.5972 11.5417 15.1979 11.5417H7.4375L6.29166 13.625H17.776C18.0712 13.625 18.3142 13.725 18.5052 13.925C18.6962 14.125 18.7917 14.3722 18.7917 14.6667C18.7917 14.9618 18.6917 15.2094 18.4917 15.4094C18.2917 15.6094 18.0444 15.709 17.75 15.7083H6.29166Z" fill="black"/>
</svg>
