<svg width="21" height="21" viewBox="0 0 21 21" fill="none" xmlns="http://www.w3.org/2000/svg">
<path fill-rule="evenodd" clip-rule="evenodd" d="M10.5 19.8752C15.6776 19.8752 19.875 15.6778 19.875 10.5002C19.875 5.32256 15.6776 1.12516 10.5 1.12516C5.32244 1.12516 1.12504 5.32256 1.12504 10.5002C1.12504 15.6778 5.32244 19.8752 10.5 19.8752ZM10.5 20.9168C16.2532 20.9168 20.9167 16.2533 20.9167 10.5002C20.9167 4.74704 16.2532 0.0834961 10.5 0.0834961C4.74692 0.0834961 0.083374 4.74704 0.083374 10.5002C0.083374 16.2533 4.74692 20.9168 10.5 20.9168Z" fill="black"/>
<path d="M4.25 16.5577C4.25 16.0196 4.65208 15.565 5.1875 15.5056C9.20573 15.0608 11.8125 15.1009 15.8219 15.5155C16.0221 15.5365 16.2118 15.6154 16.368 15.7425C16.5241 15.8696 16.6398 16.0394 16.701 16.2312C16.7622 16.4229 16.7663 16.6284 16.7126 16.8224C16.659 17.0165 16.55 17.1907 16.399 17.3238C11.6672 21.4483 8.96302 21.3915 4.58333 17.328C4.36979 17.1301 4.25 16.8483 4.25 16.5577Z" fill="black"/>
<path fill-rule="evenodd" clip-rule="evenodd" d="M15.7683 16.0328C11.7907 15.6213 9.22144 15.5828 5.24436 16.0229C5.11344 16.0381 4.99275 16.1012 4.9054 16.1998C4.81804 16.2985 4.77016 16.426 4.77092 16.5578C4.77092 16.7067 4.8329 16.8479 4.93758 16.9458C7.10842 18.9594 8.75321 19.8692 10.361 19.875C11.9746 19.8807 13.7079 18.9781 16.0569 16.9312C16.1315 16.8648 16.1852 16.7781 16.2115 16.6818C16.2378 16.5854 16.2355 16.4834 16.2049 16.3883C16.1744 16.2932 16.1168 16.209 16.0393 16.146C15.9618 16.083 15.8677 16.0433 15.7683 16.0328ZM5.13029 14.9875C9.19071 14.538 11.8355 14.5786 15.8761 14.9969C16.1773 15.0283 16.4628 15.1469 16.6977 15.3381C16.9325 15.5293 17.1065 15.7848 17.1984 16.0734C17.2902 16.3619 17.296 16.671 17.2149 16.9628C17.1338 17.2546 16.9694 17.5164 16.7418 17.7161C14.3589 19.7932 12.3746 20.9245 10.3579 20.9166C8.3355 20.9094 6.43863 19.7588 4.22977 17.7094C4.07162 17.562 3.94555 17.3837 3.85943 17.1855C3.77331 16.9873 3.72899 16.7734 3.72925 16.5573C3.72849 16.169 3.87102 15.794 4.12954 15.5042C4.38807 15.2145 4.7444 15.0308 5.13029 14.9875Z" fill="black"/>
<path d="M14.6667 8.41667C14.6667 9.52174 14.2277 10.5815 13.4463 11.3629C12.6649 12.1443 11.6051 12.5833 10.5 12.5833C9.39497 12.5833 8.33516 12.1443 7.55376 11.3629C6.77236 10.5815 6.33337 9.52174 6.33337 8.41667C6.33337 7.3116 6.77236 6.25179 7.55376 5.47039C8.33516 4.68899 9.39497 4.25 10.5 4.25C11.6051 4.25 12.6649 4.68899 13.4463 5.47039C14.2277 6.25179 14.6667 7.3116 14.6667 8.41667Z" fill="black"/>
<path fill-rule="evenodd" clip-rule="evenodd" d="M10.5 11.5417C11.3288 11.5417 12.1237 11.2124 12.7097 10.6264C13.2958 10.0403 13.625 9.24547 13.625 8.41667C13.625 7.58787 13.2958 6.79301 12.7097 6.20696C12.1237 5.62091 11.3288 5.29167 10.5 5.29167C9.67124 5.29167 8.87638 5.62091 8.29033 6.20696C7.70428 6.79301 7.37504 7.58787 7.37504 8.41667C7.37504 9.24547 7.70428 10.0403 8.29033 10.6264C8.87638 11.2124 9.67124 11.5417 10.5 11.5417ZM10.5 12.5833C11.6051 12.5833 12.6649 12.1443 13.4463 11.3629C14.2277 10.5815 14.6667 9.52174 14.6667 8.41667C14.6667 7.3116 14.2277 6.25179 13.4463 5.47039C12.6649 4.68899 11.6051 4.25 10.5 4.25C9.39497 4.25 8.33516 4.68899 7.55376 5.47039C6.77236 6.25179 6.33337 7.3116 6.33337 8.41667C6.33337 9.52174 6.77236 10.5815 7.55376 11.3629C8.33516 12.1443 9.39497 12.5833 10.5 12.5833Z" fill="black"/>
</svg>
