<svg width="25" height="25" viewBox="0 0 25 25" fill="none" xmlns="http://www.w3.org/2000/svg">
<path d="M12.5 11.4585C13.8814 11.4585 15.2061 12.0072 16.1829 12.984C17.1596 13.9607 17.7084 15.2855 17.7084 16.6668V22.9168H7.29171V16.6668C7.29171 15.2855 7.84044 13.9607 8.81719 12.984C9.79395 12.0072 11.1187 11.4585 12.5 11.4585ZM5.50837 14.5897C5.3426 15.1489 5.24468 15.726 5.21671 16.3085L5.20837 16.6668V22.9168H2.08337V18.2293C2.08317 17.331 2.41465 16.4642 3.01424 15.7952C3.61383 15.1262 4.43931 14.7021 5.33233 14.6043L5.50837 14.5897ZM19.4917 14.5897C20.4187 14.6462 21.2892 15.0543 21.9257 15.7306C22.5621 16.4069 22.9166 17.3006 22.9167 18.2293V22.9168H19.7917V16.6668C19.7917 15.945 19.6875 15.2481 19.4917 14.5897ZM5.72921 8.3335C6.41988 8.3335 7.08226 8.60786 7.57063 9.09624C8.05901 9.58462 8.33337 10.247 8.33337 10.9377C8.33337 11.6283 8.05901 12.2907 7.57063 12.7791C7.08226 13.2675 6.41988 13.5418 5.72921 13.5418C5.03854 13.5418 4.37616 13.2675 3.88778 12.7791C3.39941 12.2907 3.12504 11.6283 3.12504 10.9377C3.12504 10.247 3.39941 9.58462 3.88778 9.09624C4.37616 8.60786 5.03854 8.3335 5.72921 8.3335ZM19.2709 8.3335C19.9615 8.3335 20.6239 8.60786 21.1123 9.09624C21.6007 9.58462 21.875 10.247 21.875 10.9377C21.875 11.6283 21.6007 12.2907 21.1123 12.7791C20.6239 13.2675 19.9615 13.5418 19.2709 13.5418C18.5802 13.5418 17.9178 13.2675 17.4295 12.7791C16.9411 12.2907 16.6667 11.6283 16.6667 10.9377C16.6667 10.247 16.9411 9.58462 17.4295 9.09624C17.9178 8.60786 18.5802 8.3335 19.2709 8.3335ZM12.5 2.0835C13.6051 2.0835 14.6649 2.52248 15.4463 3.30388C16.2277 4.08529 16.6667 5.14509 16.6667 6.25016C16.6667 7.35523 16.2277 8.41504 15.4463 9.19644C14.6649 9.97784 13.6051 10.4168 12.5 10.4168C11.395 10.4168 10.3352 9.97784 9.55376 9.19644C8.77236 8.41504 8.33337 7.35523 8.33337 6.25016C8.33337 5.14509 8.77236 4.08529 9.55376 3.30388C10.3352 2.52248 11.395 2.0835 12.5 2.0835Z" fill="black"/>
</svg>
