<svg width="31" height="31" viewBox="0 0 31 31" fill="none" xmlns="http://www.w3.org/2000/svg">
<path d="M10.25 22.7917L15.5 17.5417L20.75 22.7917L22.7916 20.7501L17.5416 15.5001L22.7916 10.2501L20.75 8.20841L15.5 13.4584L10.25 8.20841L8.20829 10.2501L13.4583 15.5001L8.20829 20.7501L10.25 22.7917ZM15.5 30.0834C13.4826 30.0834 11.5868 29.7004 9.81246 28.9342C8.03815 28.1681 6.49475 27.1293 5.18225 25.8178C3.86975 24.5053 2.83093 22.9619 2.06579 21.1876C1.30065 19.4133 0.917598 17.5174 0.916626 15.5001C0.916626 13.4827 1.29968 11.5869 2.06579 9.81258C2.8319 8.03828 3.87072 6.49487 5.18225 5.18237C6.49475 3.86987 8.03815 2.83105 9.81246 2.06591C11.5868 1.30078 13.4826 0.91772 15.5 0.916748C17.5173 0.916748 19.4132 1.2998 21.1875 2.06591C22.9618 2.83203 24.5052 3.87085 25.8177 5.18237C27.1302 6.49487 28.1695 8.03828 28.9356 9.81258C29.7017 11.5869 30.0843 13.4827 30.0833 15.5001C30.0833 17.5174 29.7002 19.4133 28.9341 21.1876C28.168 22.9619 27.1292 24.5053 25.8177 25.8178C24.5052 27.1303 22.9618 28.1696 21.1875 28.9357C19.4132 29.7018 17.5173 30.0844 15.5 30.0834ZM15.5 27.1667C18.7569 27.1667 21.5156 26.0365 23.776 23.7761C26.0364 21.5157 27.1666 18.757 27.1666 15.5001C27.1666 12.2431 26.0364 9.48446 23.776 7.22404C21.5156 4.96362 18.7569 3.83341 15.5 3.83341C12.243 3.83341 9.48433 4.96362 7.22392 7.22404C4.9635 9.48446 3.83329 12.2431 3.83329 15.5001C3.83329 18.757 4.9635 21.5157 7.22392 23.7761C9.48433 26.0365 12.243 27.1667 15.5 27.1667Z" fill="white"/>
</svg>
