<svg width="23" height="22" viewBox="0 0 23 22" fill="none" xmlns="http://www.w3.org/2000/svg">
<path d="M7.27971 21.4138C6.69388 21.4138 6.19221 21.211 5.77468 20.8055C5.35714 20.4 5.14873 19.9131 5.14944 19.3448C5.14944 18.7758 5.35821 18.2886 5.77574 17.8831C6.19327 17.4776 6.69459 17.2752 7.27971 17.2758C7.86553 17.2758 8.36721 17.4786 8.78474 17.8841C9.20227 18.2896 9.41068 18.7765 9.40997 19.3448C9.40997 19.9138 9.2012 20.401 8.78367 20.8065C8.36614 21.2121 7.86482 21.4145 7.27971 21.4138ZM17.931 21.4138C17.3452 21.4138 16.8435 21.211 16.426 20.8055C16.0085 20.4 15.8001 19.9131 15.8008 19.3448C15.8008 18.7758 16.0095 18.2886 16.4271 17.8831C16.8446 17.4776 17.3459 17.2752 17.931 17.2758C18.5168 17.2758 19.0185 17.4786 19.4361 17.8841C19.8536 18.2896 20.062 18.7765 20.0613 19.3448C20.0613 19.9138 19.8525 20.401 19.435 20.8065C19.0175 21.2121 18.5161 21.4145 17.931 21.4138ZM7.27971 16.2414C6.48086 16.2414 5.87728 15.9007 5.46898 15.2193C5.06068 14.5379 5.04293 13.8614 5.41573 13.1896L6.85365 10.6552L3.01918 2.79309H1.92742C1.62563 2.79309 1.3771 2.69378 1.18183 2.49516C0.986553 2.29654 0.888916 2.05102 0.888916 1.75861C0.888916 1.4655 0.991169 1.21964 1.19567 1.02102C1.40018 0.8224 1.65297 0.723435 1.95405 0.724125H3.68489C3.88016 0.724125 4.06656 0.775849 4.24408 0.879297C4.4216 0.982745 4.55474 1.1293 4.64351 1.31895L5.36247 2.79309H21.0732C21.5525 2.79309 21.8809 2.9655 22.0584 3.31033C22.2359 3.65516 22.2271 4.01723 22.0318 4.39654L18.2506 11.0172C18.0553 11.3621 17.7979 11.6293 17.4783 11.819C17.1588 12.0086 16.7949 12.1034 16.3866 12.1034H8.45135L7.27971 14.1724H19.0228C19.3246 14.1724 19.5731 14.2717 19.7684 14.4703C19.9637 14.6689 20.0613 14.9145 20.0613 15.2069C20.0613 15.5 19.959 15.7458 19.7545 15.9445C19.55 16.1431 19.2972 16.2421 18.9962 16.2414H7.27971Z" fill="white"/>
</svg>
