<svg width="21" height="21" viewBox="0 0 21 21" fill="none" xmlns="http://www.w3.org/2000/svg">
<path d="M6.29163 20.9168C5.71871 20.9168 5.22808 20.7127 4.81975 20.3043C4.41142 19.896 4.2076 19.4057 4.20829 18.8335C4.20829 18.2606 4.41246 17.77 4.82079 17.3616C5.22913 16.9533 5.7194 16.7495 6.29163 16.7502C6.86454 16.7502 7.35517 16.9543 7.7635 17.3627C8.17184 17.771 8.37565 18.2613 8.37496 18.8335C8.37496 19.4064 8.17079 19.897 7.76246 20.3054C7.35413 20.7137 6.86385 20.9175 6.29163 20.9168ZM16.7083 20.9168C16.1354 20.9168 15.6448 20.7127 15.2364 20.3043C14.8281 19.896 14.6243 19.4057 14.625 18.8335C14.625 18.2606 14.8291 17.77 15.2375 17.3616C15.6458 16.9533 16.1361 16.7495 16.7083 16.7502C17.2812 16.7502 17.7718 16.9543 18.1802 17.3627C18.5885 17.771 18.7923 18.2613 18.7916 18.8335C18.7916 19.4064 18.5875 19.897 18.1791 20.3054C17.7708 20.7137 17.2805 20.9175 16.7083 20.9168ZM6.29163 15.7085C5.51038 15.7085 4.9201 15.3654 4.52079 14.6793C4.12149 13.9932 4.10413 13.312 4.46871 12.6356L5.87496 10.0835L2.12496 2.16683H1.05725C0.762112 2.16683 0.519057 2.06683 0.328084 1.86683C0.137112 1.66683 0.041626 1.41961 0.041626 1.12517C0.041626 0.830027 0.141626 0.582458 0.341626 0.382458C0.541626 0.182458 0.788848 0.0828053 1.08329 0.0834997H2.776C2.96697 0.0834997 3.14927 0.135583 3.32288 0.23975C3.49649 0.343916 3.6267 0.491486 3.7135 0.682458L4.41663 2.16683H19.7812C20.25 2.16683 20.5711 2.34044 20.7448 2.68767C20.9184 3.03489 20.9097 3.39947 20.7187 3.78142L17.0208 10.4481C16.8298 10.7953 16.5781 11.0644 16.2656 11.2554C15.9531 11.4463 15.5972 11.5418 15.1979 11.5418H7.43746L6.29163 13.6252H17.776C18.0711 13.6252 18.3142 13.7252 18.5052 13.9252C18.6961 14.1252 18.7916 14.3724 18.7916 14.6668C18.7916 14.962 18.6916 15.2095 18.4916 15.4095C18.2916 15.6095 18.0444 15.7092 17.75 15.7085H6.29163Z" fill="black"/>
</svg>
